<svg xmlns="http://www.w3.org/2000/svg" xml:space="preserve" width="100%" height="100%" version="1.1" style="shape-rendering:geometricPrecision; text-rendering:geometricPrecision; image-rendering:optimizeQuality; fill-rule:evenodd; clip-rule:evenodd"
viewBox="-110 -120 428 494" xmlns:xlink="http://www.w3.org/1999/xlink"><defs><style type="text/css"><![CDATA[.fil0 {fill:#fff}.fil1 {fill:#fff}]]></style></defs><g id="Layer_x0020_1"><metadata id="CorelCorpID_0Corel-Layer"/><polygon class="fil0" points="108,274 48,274 48,152 0,152 0,95 48,95 48,0 208,0 208,56 108,56 108,95 180,95 180,151 108,151 "/><polygon class="fil1" points="99,272 103,272 103,147 175,147 175,100 103,100 103,52 203,52 203,7 199,7 199,48 98,48 98,104 171,104 171,142 99,142 "/></g></svg>