<svg version="1.1" xmlns="http://www.w3.org/2000/svg" width="100%" height="100%" viewBox="-14.5 5.5 46 26" xml:space="preserve"><g><path fill="#fff" d="M13.8,7.6h-2.4v0.7V9l-0.4-0.3C10.2,7.8,9,7.2,7.7,7.2c-0.2,0-0.4,0-0.4,0c-0.1,0-0.3,0-0.5,0
c-5.6,0.3-8.7,7.2-5.4,12.1c2.3,3.4,7.1,4.1,9.7,1.5l0.3-0.3l0,0.7c0,1-0.1,1.5-0.4,2.2c-1,2.4-4.1,3-6.8,1.3
c-0.2-0.1-0.4-0.2-0.4-0.2c-0.1,0.1-1.9,3.5-1.9,3.6c0,0.1,0.5,0.4,0.8,0.6c2.2,1.4,5.6,1.7,8.3,0.8c2.7-0.9,4.5-3.2,5-6.4
c0.2-1.1,0.2-0.8,0.2-8.4l0-7.1H13.8z M9.7,17.6c-2.2,1.2-4.9-0.4-4.9-2.9C4.8,12.6,7,11,9,11.6C11.8,12.4,12.3,16.1,9.7,17.6z"></path></g></svg>